<svg width="142" height="26" viewBox="0 0 142 26" fill="none" xmlns="http://www.w3.org/2000/svg">
<g id="Group 14396">
<path id="Star 1" d="M12.5255 0.488647L15.3376 9.1421H24.4379L17.0756 14.4902L19.8877 23.1437L12.5255 17.7955L5.16322 23.1437L7.97535 14.4902L0.613098 9.1421H9.71334L12.5255 0.488647Z" fill="#FEB801"/>
<path id="Star 2" d="M41.7515 0.488647L44.5636 9.1421H53.6639L46.3016 14.4902L49.1137 23.1437L41.7515 17.7955L34.3892 23.1437L37.2014 14.4902L29.8391 9.1421H38.9393L41.7515 0.488647Z" fill="#FEB801"/>
<path id="Star 3" d="M70.9777 0.488647L73.7898 9.1421H82.89L75.5278 14.4902L78.3399 23.1437L70.9777 17.7955L63.6154 23.1437L66.4275 14.4902L59.0653 9.1421H68.1655L70.9777 0.488647Z" fill="#FEB801"/>
<path id="Star 4" d="M100.203 0.488647L103.016 9.1421H112.116L104.754 14.4902L107.566 23.1437L100.203 17.7955L92.8412 23.1437L95.6534 14.4902L88.2911 9.1421H97.3914L100.203 0.488647Z" fill="#FEB801"/>
<path id="Star 5" d="M129.429 0.488647L132.242 9.1421H141.342L133.98 14.4902L136.792 23.1437L129.429 17.7955L122.067 23.1437L124.879 14.4902L117.517 9.1421H126.617L129.429 0.488647Z" fill="#FEB801"/>
</g>
</svg>
